<svg width="69" height="88" viewBox="0 0 69 88" fill="none" xmlns="http://www.w3.org/2000/svg">
<path d="M68.8966 9.2767C68.9168 15.5513 68.9319 21.8259 68.9412 28.1005C68.9456 31.0143 68.9516 33.928 68.9615 36.8418C68.9701 39.3833 68.9756 41.9248 68.9776 44.4663C68.9787 45.8103 68.9813 47.1543 68.9876 48.4984C68.9935 49.767 68.9952 51.0356 68.9939 52.3043C68.9941 52.7665 68.9958 53.2287 68.9992 53.6908C69.0558 61.956 66.2702 69.673 60.5836 75.7808C60.4485 75.9277 60.3134 76.0745 60.1742 76.2258C53.8491 83.0398 45.2416 87.2653 35.8965 87.6132C25.9284 87.8362 17.1986 84.3301 9.98924 77.4719C8.02081 75.5464 6.42545 73.5411 4.97242 71.1943C4.77251 70.8828 4.5726 70.5713 4.36663 70.2504C3.26262 68.4436 2.4124 66.6426 1.72962 64.6371C1.66359 64.4451 1.59757 64.253 1.52954 64.0552C0.375166 60.4336 -0.0293511 56.8303 0.00164014 53.046C0.00188361 52.6302 0.0017448 52.2144 0.0012596 51.7985C0.00101614 50.6859 0.00601764 49.5734 0.0120722 48.4609C0.0175036 47.2921 0.0179582 46.1234 0.0189744 44.9546C0.0216311 42.7487 0.028664 40.5428 0.0373321 38.3368C0.0469949 35.8224 0.0516875 33.308 0.0559917 30.7935C0.064944 25.6278 0.0800382 20.4621 0.0992682 15.2965C0.466765 15.5714 0.834164 15.8464 1.20152 16.1215C1.40613 16.2747 1.61073 16.4278 1.82154 16.5856C2.46355 17.07 3.09308 17.5676 3.7183 18.0735C4.57145 18.7634 5.43042 19.4429 6.3038 20.1069C6.48371 20.2449 6.66361 20.3828 6.84897 20.5249C7.20292 20.7959 7.5583 21.0651 7.91526 21.3321C8.92508 22.1092 9.61548 22.7307 10.1322 23.8961C10.2556 24.9248 10.2428 25.9465 10.2334 26.9813C10.234 27.2925 10.2347 27.6036 10.2353 27.9241C10.2362 28.5996 10.2351 29.2752 10.2324 29.9507C10.2285 31.0239 10.2303 32.0969 10.2338 33.1701C10.2421 36.0302 10.2421 38.8903 10.2366 41.7504C10.2327 43.8095 10.2354 45.8684 10.2441 47.9274C10.2456 48.6354 10.2445 49.3435 10.2405 50.0515C10.213 55.0181 10.5784 59.4073 12.945 63.8667C13.0412 64.0538 13.1374 64.2409 13.2364 64.4337C14.1138 66.0846 15.2052 67.4992 16.4386 68.9011C16.6241 69.1405 16.8096 69.38 17.0008 69.6267C20.3046 73.6267 26.2731 76.3655 31.3447 76.9275C38.8382 77.3998 45.3875 75.6256 51.124 70.621C51.2969 70.4754 51.4699 70.3299 51.648 70.1799C54.0774 67.9662 55.8427 64.9117 57.1258 61.9139C57.2033 61.7391 57.2807 61.5644 57.3604 61.3844C59.1659 56.8764 58.9824 51.9665 58.9639 47.2043C58.9591 45.9788 58.9617 44.7534 58.9653 43.5279C58.9738 40.2681 58.9735 37.0084 58.9681 33.7487C58.9645 31.5965 58.9651 29.4444 58.9733 27.2923C58.9777 26.0751 58.9756 24.8582 58.9686 23.641C58.965 22.7079 58.9707 21.7749 58.975 20.8418C58.9692 20.3399 58.9692 20.3399 58.9634 19.8278C58.9891 17.2996 58.9891 17.2996 59.8484 16.2491C60.2124 15.9194 60.2124 15.9194 60.5836 15.5831C60.8173 15.368 60.8173 15.368 61.0556 15.1485C61.1925 15.0454 61.3294 14.9424 61.4705 14.8363C61.628 14.7155 61.7855 14.5948 61.9478 14.4704C62.1125 14.3469 62.2772 14.2234 62.4469 14.0961C64.0619 12.8607 65.6236 11.5796 67.1515 10.2378C68.2624 9.2767 68.2624 9.2767 68.8966 9.2767Z" fill="#001233"/>
<path d="M19.8784 16.7297C20.9668 17.2426 21.8087 17.9311 22.7091 18.7184C24.2414 20.0412 25.8093 21.3037 27.426 22.5221C29.7773 24.3273 29.7773 24.3273 30.0159 25.6007C30.0579 26.2925 30.0621 26.9758 30.0542 27.6689C30.0558 27.9311 30.0574 28.1932 30.059 28.4633C30.0617 29.0313 30.0617 29.5994 30.0594 30.1675C30.0558 31.0678 30.059 31.9679 30.064 32.8682C30.0717 34.4559 30.0733 36.0436 30.0729 37.6314C30.0722 40.1695 30.0763 42.7076 30.0888 45.2458C30.0916 46.1306 30.0891 47.0152 30.0863 47.9C30.0881 48.4459 30.09 48.9917 30.0923 49.5376C30.0901 49.7818 30.0879 50.0259 30.0856 50.2774C30.0999 51.982 30.3044 53.6438 31.4235 55.0166C32.4641 55.9856 33.378 56.3367 34.7845 56.2882C35.8318 56.2521 36.8746 55.2418 37.5331 53.988C38.0573 52.7124 38.0579 51.5117 38.048 50.148C38.0496 49.8849 38.0511 49.6217 38.0527 49.3506C38.0555 48.7822 38.0563 48.2138 38.0555 47.6455C38.0542 46.7453 38.0582 45.8453 38.0636 44.9451C38.0759 42.7104 38.0791 40.4758 38.0826 38.2411C38.0859 36.3502 38.0926 34.4594 38.104 32.5686C38.1079 31.6829 38.1067 30.7972 38.1053 29.9115C38.108 29.3674 38.1109 28.8234 38.1141 28.2793C38.1123 28.034 38.1106 27.7887 38.1088 27.536C38.1254 25.9182 38.3847 24.6978 39.4867 23.4351C39.6248 23.3201 39.7629 23.2051 39.9051 23.0866C40.063 22.9529 40.2208 22.8193 40.3834 22.6816C40.5519 22.5444 40.7203 22.4072 40.8939 22.2658C41.069 22.1197 41.2441 21.9736 41.4245 21.8231C41.9789 21.3633 42.5374 20.909 43.0975 20.4563C43.2829 20.3059 43.4683 20.1556 43.6592 20.0007C44.1987 19.5649 44.7403 19.1318 45.2833 18.7005C45.4493 18.5683 45.6153 18.4362 45.7864 18.3C46.5812 17.6781 47.3478 17.1626 48.2573 16.7297C48.2842 21.4818 48.3044 26.2339 48.3168 30.986C48.3226 33.1929 48.3307 35.3998 48.3438 37.6066C48.3553 39.5318 48.3627 41.457 48.3652 43.3823C48.3667 44.4001 48.3702 45.4179 48.3786 46.4357C48.3879 47.5766 48.388 48.7173 48.3875 49.8582C48.3916 50.1896 48.3958 50.5209 48.4 50.8623C48.3764 55.6013 46.7122 59.3652 43.504 62.7884C40.6169 65.5636 37.2439 67.0356 33.2482 66.9908C29.5853 66.6528 26.4445 64.7393 23.9633 62.093C20.7769 58.202 19.8307 54.4619 19.8459 49.5653C19.8458 49.0323 19.8458 49.0323 19.8458 48.4884C19.8459 47.519 19.8474 46.5497 19.8494 45.5803C19.8512 44.5653 19.8513 43.5503 19.8517 42.5354C19.8525 40.6156 19.8549 38.6959 19.8578 36.7762C19.861 34.5897 19.8626 32.4032 19.864 30.2168C19.867 25.7211 19.872 21.2254 19.8784 16.7297Z" fill="#001233"/>
<circle cx="6.87974" cy="6.87974" r="6.87974" fill="#9381FF"/>
</svg>
